<svg xmlns="http://www.w3.org/2000/svg" width="1104" height="200" viewBox="0 0 1104 200">
  <title>Mako</title>
  <!-- Original outlined lettering from the approved 10A refinement. No font dependency.
       All letters share baseline 194; lowercase a/o share x-height 59. -->
  <g fill="#fff" fill-rule="evenodd">
    <path id="letter-m" d="M0 194 145 22Q155 8 174 8H211Q222 8 220 20L212 123 326 23Q343 8 361 8H438L338 194H264L333 63 230 187Q223 194 215 194H156Q146 194 147 182L158 70 82 182Q74 194 61 194Z"/>
    <path id="letter-a" d="M457 59H613Q660 59 646 99L612 183Q608 194 590 194H411Q366 194 379 158L393 135Q404 116 435 116H572L582 97Q586 89 573 89H432L441 76Q447 66 457 59ZM444 143Q434 143 431 152L427 159Q424 169 437 169H530Q543 169 548 160L558 143Z"/>
    <path id="letter-k" d="M717 5H790L728 111 834 59H931L793 124 886 194H797L716 142 686 194H618Z"/>
    <path id="letter-o" d="M984 59H1051Q1116 59 1096 105L1073 151Q1051 194 996 194H923Q867 194 880 156L904 109Q929 59 984 59ZM982 91Q965 91 951 116L935 146Q926 165 950 165H989Q1011 165 1025 141L1041 112Q1053 91 1030 91Z"/>
  </g>
</svg>
